# xmcd
#
# Track frame offsets:
#	150
#	20759
#	33674
#	51279
#	70936
#	83374
#	95516
#	115967
#	131412
#	154430
#	175772
#	181388
#
# Disc length: 2610 seconds
#
# Revision: 0
# Processed by: cddbd v1.4PL0 Copyright (c) Steve Scherf et al.
# Submitted via: dBpowerAMP V4.0
#
DISCID=9f0a300c
DTITLE=Various Artist - Pickin' On Peter Frampton: The Bluegrass Tribute
DYEAR=2001
DGENRE=Bluegrass
TTITLE0=Do You Feel Like We Do
TTITLE1=Shine On
TTITLE2=I Can't Stand It No More
TTITLE3=Baby, I Love Your Way
TTITLE4=It's a Plain Shame
TTITLE5=Wind of Change
TTITLE6=Baby (Somethin's Happening)
TTITLE7=All Night Long
TTITLE8=Lines On My Face
TTITLE9=Lying
TTITLE10=Penny For Your Thoughts
TTITLE11=Show Me The Way
EXTD=
EXTT0=
EXTT1=
EXTT2=
EXTT3=
EXTT4=
EXTT5=
EXTT6=
EXTT7=
EXTT8=
EXTT9=
EXTT10=
EXTT11=
PLAYORDER=
